<svg xmlns="http://www.w3.org/2000/svg" version="1.1" xmlns:xlink="http://www.w3.org/1999/xlink" xmlns:svgjs="http://svgjs.dev/svgjs" width="1440" height="560" preserveAspectRatio="none" viewBox="0 0 1440 560"><g mask="url(&quot;#SvgjsMask1050&quot;)" fill="none"><rect width="1440" height="560" x="0" y="0" fill="rgba(186, 186, 190, 1)"></rect><path d="M0,320.4C84.358,339.663,165.96,415.291,246.4,383.406C324.889,352.294,349.471,251.814,375.587,171.525C399.572,97.786,395.11,21.349,389.319,-55.976C383.117,-138.79,388.386,-227.218,340.637,-295.164C291.083,-365.678,211.59,-417.672,126.323,-430.215C44.726,-442.218,-26.686,-383.623,-105.958,-360.86C-185.85,-337.919,-286.219,-357.986,-341.472,-295.887C-396.72,-233.793,-365.096,-136.444,-378.6,-54.434C-392.469,29.79,-464.461,118.682,-421.923,192.686C-378.532,268.175,-266.672,260.048,-183.335,285.274C-122.55,303.673,-61.915,306.261,0,320.4" fill="#8e8e94"></path><path d="M1440 1063.637C1544.159 1062.58 1652.3220000000001 1082.2350000000001 1744.745 1034.192 1840.911 984.204 1910.804 894.158 1955.757 795.538 2000.69 696.961 2017.454 586.322 1997.423 479.855 1977.8690000000001 375.925 1911.329 291.41 1845.356 208.757 1776.8310000000001 122.90800000000002 1716.5529999999999 0.27300000000002456 1607.113-9.134000000000015 1494.55-18.809999999999945 1427.259 118.757 1323.699 163.91500000000002 1238.628 201.01100000000002 1136.49 178.78199999999998 1059.01 229.87 967.682 290.09 874.859 368.525 851.358 475.366 827.529 583.699 886.505 690.89 935.741 790.287 983.685 887.076 1036.297 988.942 1131.255 1040.417 1223.863 1090.618 1334.666 1064.7060000000001 1440 1063.637" fill="#e7e7e8"></path></g><defs><mask id="SvgjsMask1050"><rect width="1440" height="560" fill="#ffffff"></rect></mask></defs></svg>